<?xml version="1.0"?>
<svg xmlns="http://www.w3.org/2000/svg" xmlns:xlink="http://www.w3.org/1999/xlink" version="1.1" id="Capa_1" x="0px" y="0px" viewBox="0 0 512 512" style="enable-background:new 0 0 512 512;" xml:space="preserve" width="512px" height="512px" class=""><g><g>
	<g>
		<path d="M316,286.306c-5.52,0-10,4.48-10,10c0,5.52,4.48,10,10,10c5.52,0,10-4.48,10-10C326,290.786,321.52,286.306,316,286.306z" data-original="#000000" class="active-path" data-old_color="#000000" fill="#007DF2"/>
	</g>
</g><g>
	<g>
		<path d="M196,286.306c-5.52,0-10,4.48-10,10c0,5.52,4.48,10,10,10s10-4.48,10-10C206,290.786,201.52,286.306,196,286.306z" data-original="#000000" class="active-path" data-old_color="#000000" fill="#007DF2"/>
	</g>
</g><g>
	<g>
		<path d="M472.186,259.958c-24.663-42.268-58.922-77.231-99.076-101.108c-13.804-8.206-29.749-12.544-46.11-12.544    c-18.543,0-31-12.726-31-24.61v-65.39c0-5.522-4.477-10-10-10h-60c-5.523,0-10,4.478-10,10v65.39    c0,15.026-17.539,24.61-26.71,24.61c-15.215,0-31.851,1.52-50.401,12.545c-40.152,23.876-74.412,58.839-99.075,101.107    C13.768,304.599,0,355.206,0,406.306c0,10.729,0.545,21.513,1.621,32.048c1.632,16.109,15.594,28.121,31.765,27.3    c65.798-3.262,114.498-18.383,148.881-46.228c20.529-16.626,36.286-38.166,46.831-64.022C240.313,327.901,246,294.559,246,256.306    c0-15.791-1.924-31.489-5.726-46.776c4.941-2.122,10.275-3.224,15.726-3.224s10.784,1.102,15.726,3.224    c-3.802,15.287-5.726,30.985-5.726,46.776c0,38.253,5.687,71.595,16.903,99.098c10.545,25.856,26.301,47.396,46.831,64.022    c34.383,27.845,83.083,42.966,148.881,46.228c0.513,0.025,1.021,0.038,1.529,0.038c15.521,0,28.655-11.738,30.234-27.33    c1.076-10.543,1.622-21.327,1.622-32.056C512,355.205,498.232,304.599,472.186,259.958z M490.481,436.339    c-0.567,5.604-5.228,9.605-10.876,9.341C345.71,439.041,286,380.636,286,256.306c0-16.589,2.367-33.062,7.035-48.963    c1.238-4.219-0.423-8.751-4.095-11.169c-9.803-6.456-21.193-9.868-32.94-9.868s-23.137,3.412-32.94,9.868    c-3.672,2.418-5.333,6.95-4.095,11.169c4.668,15.9,7.035,32.374,7.035,48.963c0,124.33-59.71,182.734-193.604,189.373    c-5.622,0.276-10.309-3.737-10.877-9.349C20.511,426.461,20,416.359,20,406.306c0-93.241,50.679-183.626,129.109-230.264    c13.641-8.107,25.488-9.736,40.181-9.736c19.045,0,46.71-17.378,46.71-44.61v-55.39h40v55.39c0,21.454,19.499,44.61,51,44.61    c12.766,0,25.176,3.366,35.889,9.734C441.321,222.68,492,313.065,492,406.306C492,416.359,491.489,426.461,490.481,436.339z" data-original="#000000" class="active-path" data-old_color="#000000" fill="#007DF2"/>
	</g>
</g><g>
	<g>
		<path d="M188.294,325.337c-5.198-1.87-10.926,0.828-12.794,6.026c-8.068,22.434-21.223,38.986-40.217,50.603    c-4.711,2.882-6.195,9.037-3.314,13.749c2.878,4.705,9.031,6.197,13.749,3.313c23.034-14.087,38.933-34.007,48.603-60.897    C196.189,332.934,193.491,327.206,188.294,325.337z" data-original="#000000" class="active-path" data-old_color="#000000" fill="#007DF2"/>
	</g>
</g><g>
	<g>
		<path d="M376.708,381.965c-18.997-11.618-32.149-28.169-40.207-50.6c-1.867-5.198-7.595-7.898-12.792-6.03    c-5.198,1.867-7.897,7.594-6.03,12.792c9.66,26.89,25.555,46.811,48.594,60.9c4.711,2.881,10.868,1.397,13.749-3.314    C382.903,391.003,381.419,384.847,376.708,381.965z" data-original="#000000" class="active-path" data-old_color="#000000" fill="#007DF2"/>
	</g>
</g></g> </svg>
