<?xml version="1.0" encoding="utf-8"?>
<!-- Generator: Adobe Illustrator 19.0.0, SVG Export Plug-In . SVG Version: 6.00 Build 0)  -->
<svg version="1.1" id="Layer_1" xmlns="http://www.w3.org/2000/svg" xmlns:xlink="http://www.w3.org/1999/xlink" x="0px" y="0px"
	 viewBox="382.5 188.5 419 123.7" style="enable-background:new 382.5 188.5 419 123.7;" xml:space="preserve">
<style type="text/css">
	.st0{fill:#FFFFFF;}
	.st1{fill:#007DF2;}
</style>
<g id="XMLID_15_">
	<path id="XMLID_28_" class="st0" d="M574.8,273.5c-1.6,2.7-4,4.8-7.1,6.5c-3.1,1.6-6.9,2.4-11.4,2.4c-4.4,0-8.4-0.8-11.8-2.3
		c-3.5-1.5-6.3-3.7-8.4-6.5c-2.1-2.8-3.3-6.1-3.6-9.9h13.3c0.3,2.5,1.3,4.6,3.1,6.3c1.7,1.7,4.1,2.5,6.9,2.5c2.6,0,4.6-0.7,6-2.1
		c1.4-1.4,2.1-3.2,2.1-5.3c0-1.9-0.6-3.6-1.7-4.8c-1.1-1.3-2.5-2.3-4.2-3.1c-1.7-0.8-4.1-1.6-7.1-2.7c-3.9-1.3-7.1-2.6-9.5-3.8
		c-2.5-1.3-4.6-3.1-6.3-5.5s-2.6-5.6-2.6-9.5c0-5.4,1.9-9.6,5.8-12.7c3.9-3.1,9-4.6,15.3-4.6c6.6,0,11.9,1.6,15.8,4.8
		c3.9,3.2,6.1,7.4,6.7,12.7h-13.4c-0.4-2.2-1.3-4.1-2.8-5.5s-3.6-2.2-6.3-2.2c-2.3,0-4.2,0.6-5.6,1.8c-1.4,1.2-2.1,3-2.1,5.3
		c0,1.8,0.5,3.3,1.6,4.6c1.1,1.2,2.5,2.2,4.2,3s4,1.6,6.9,2.6c4,1.4,7.3,2.7,9.8,4c2.5,1.2,4.6,3.1,6.4,5.6c1.8,2.5,2.7,5.7,2.7,9.7
		C577.2,267.9,576.3,270.8,574.8,273.5z"/>
	<path id="XMLID_26_" class="st0" d="M593.8,232.8l13.4,33.2l12.4-33.2h13.7l-30,72.3h-13.8l11.1-24.8L580,232.7L593.8,232.8
		L593.8,232.8z"/>
	<path id="XMLID_24_" class="st0" d="M658,234.8c3-1.8,6.4-2.7,10.1-2.7v13.4h-3.6c-9.1,0-13.7,4.2-13.7,12.7v23.6h-12.5v-49h12.5
		v9.4C652.5,239.1,655,236.6,658,234.8z"/>
	<path id="XMLID_21_" class="st0" d="M674.8,213.8c1.4-1.3,3.3-1.9,5.6-1.9s4.2,0.6,5.6,1.9c1.4,1.3,2.1,2.9,2.1,4.9
		c0,1.9-0.7,3.6-2.1,4.8c-1.4,1.3-3.3,1.9-5.6,1.9s-4.2-0.6-5.6-1.9c-1.4-1.3-2.1-2.9-2.1-4.8C672.6,216.7,673.3,215.1,674.8,213.8z
		 M686.5,232.8v49H674v-49H686.5z"/>
	<path id="XMLID_19_" class="st0" d="M738.8,237.7c3.4,3.7,5,8.9,5,15.7v28.5h-12.4v-27.1c0-3.9-1-6.9-3-9.1s-4.7-3.2-8.2-3.2
		s-6.4,1.1-8.5,3.4s-3.2,5.6-3.2,9.9v26H696v-49h12.5v9.8c1.3-3.3,3.4-5.9,6.4-7.7c3-1.9,6.4-2.8,10.3-2.8
		C730.8,232.1,735.3,234,738.8,237.7z"/>
	<path id="XMLID_16_" class="st0" d="M782.8,235.1c2.9,1.9,5,4.6,6.3,7.9v-10.2h12.4V282c0,4.5-0.9,8.6-2.7,12.2s-4.5,6.5-8,8.5
		c-3.6,2.1-7.9,3.1-13,3.1c-7.1,0-12.8-1.7-17.2-5c-4.4-3.4-7-7.9-8-13.7h12.3c0.7,2.5,2.1,4.4,4.1,5.8s4.6,2.1,7.8,2.1
		c3.7,0,6.6-1.1,8.8-3.2c2.2-2.2,3.4-5.4,3.4-9.8v-10.4c-1.2,3.3-3.3,5.9-6.3,7.9c-2.9,2-6.5,3-10.6,3s-7.8-1-11.1-3
		s-5.9-4.9-7.7-8.7c-1.9-3.8-2.8-8.3-2.8-13.4c0-5.1,0.9-9.6,2.8-13.4c1.9-3.8,4.4-6.7,7.7-8.7s7-3,11.1-3
		C776.2,232.2,779.8,233.2,782.8,235.1z M766.6,246.9c-2.4,2.5-3.5,6-3.5,10.4c0,4.4,1.2,7.9,3.5,10.4c2.4,2.5,5.5,3.8,9.4,3.8
		c3.8,0,6.9-1.3,9.3-3.8c2.4-2.6,3.7-6,3.7-10.3c0-4.4-1.2-7.8-3.7-10.4c-2.4-2.6-5.6-3.8-9.3-3.8
		C772.1,243.1,769,244.3,766.6,246.9z"/>
</g>
<g id="XMLID_12_">
	<path id="XMLID_2_" class="st1" d="M506.2,250.4c0-33.1-26.2-60.2-58.9-61.8v30.1c16.2,1.5,28.9,15.2,28.9,31.8
		s-12.7,30.2-28.9,31.8v29.9C480,310.6,506.2,283.5,506.2,250.4z"/>
	<path id="XMLID_11_" class="st1" d="M412.5,250.4c0-16.6,12.7-30.2,28.9-31.8v-30.1c-32.7,1.6-58.9,28.7-58.9,61.8
		s26.2,60.2,58.9,61.8V282C425.2,280.6,412.5,267,412.5,250.4z"/>
</g>
</svg>
